<svg width="65" height="65" viewBox="0 0 65 65" fill="none" xmlns="http://www.w3.org/2000/svg">
<g clip-path="url(#clip0_117_146)">
<path d="M7.503 0C8.29089 0 9 0.631578 9 1.42105V4.5C9 5.36842 8.29089 6 7.503 6C6.7151 6 6.00599 5.36842 6.00599 4.57895V1.5C5.9272 0.710526 6.63631 0 7.503 0Z" fill="#2CB2FF"/>
<path fill-rule="evenodd" clip-rule="evenodd" d="M21.1353 28.9382L27.0683 28.0754L29.7454 22.7549C30.2518 21.7484 31.6989 21.7484 32.2054 22.7549L34.8825 28.0754L40.8155 28.9382C41.9008 29.082 42.4073 30.4481 41.6114 31.239L41.539 31.3109L37.2702 35.481L38.2831 41.3767C38.5002 42.4552 37.3425 43.3179 36.3296 42.8866H36.2572L31.0477 39.9387L25.6936 42.7428C24.6806 43.246 23.5229 42.4552 23.6677 41.3767V41.3048L24.6806 35.4091L20.4117 31.239C19.6158 30.4481 20.05 29.1539 21.0629 28.9382H21.1353ZM32.7842 29.9448L31.0477 26.4218L29.3112 29.9448C29.0942 30.3762 28.7324 30.6638 28.2983 30.6638L24.3912 31.239L27.213 33.9711C27.5024 34.2587 27.6471 34.6901 27.6471 35.1215V35.1934L26.9959 39.0759L30.4689 37.2785C30.8307 37.0628 31.2648 37.0628 31.6989 37.2066L31.7713 37.2785L35.2443 39.0759L34.5931 35.1934C34.5207 34.762 34.6654 34.3306 34.9548 34.043L35.0272 33.9711L37.849 31.239L33.9419 30.6638C33.5078 30.5919 33.146 30.3762 32.9289 30.0167L32.7842 29.9448Z" fill="#2CB2FF"/>
<path fill-rule="evenodd" clip-rule="evenodd" d="M31 8C17.1919 8 6 19.1919 6 33C6 46.8081 17.1919 58 31 58C44.8081 58 56 46.8081 56 33C56 19.1919 44.8081 8 31 8ZM31 10.7616C43.282 10.7616 53.2384 20.718 53.2384 33C53.2384 45.282 43.282 55.2384 31 55.2384C18.718 55.2384 8.76163 45.282 8.76163 33C8.76163 20.718 18.718 10.7616 31 10.7616Z" fill="#2CB2FF"/>
<path d="M59 51.421C58.9211 50.6316 58.2895 50 57.5 50C56.6316 50 56 50.7105 56 51.5V54.5789C56.0789 55.3684 56.7105 56 57.5 56C58.3684 56 59 55.2895 59 54.5V51.421Z" fill="#2CB2FF"/>
<path d="M7.503 8C8.29089 8 9 8.63158 9 9.42105V12.5C9 13.3684 8.29089 14 7.503 14C6.7151 14 6.00599 13.3684 6.00599 12.5789V9.5C5.9272 8.63158 6.63631 8 7.503 8Z" fill="#2CB2FF"/>
<path d="M59 60.421C58.9211 59.6316 58.2895 59 57.5 59C56.6316 59 56 59.7105 56 60.5V63.5789C56.0789 64.3684 56.7105 65 57.5 65C58.3684 65 59 64.2895 59 63.5V60.421Z" fill="#2CB2FF"/>
<path d="M12.5 6C13.3684 6 14 6.71053 14 7.5C14 8.28947 13.3684 9 12.5789 9H9.5C8.63158 9 8 8.28947 8 7.5C8 6.71053 8.63158 6 9.42105 6H12.5Z" fill="#2CB2FF"/>
<path d="M65 57.5C65 56.6316 64.2895 56 63.5 56H60.421C59.6316 56.0789 59 56.7105 59 57.5C59 58.3684 59.7105 59 60.5 59H63.5789C64.3684 58.9211 65 58.2895 65 57.5Z" fill="#2CB2FF"/>
<path d="M4.5 6C5.36842 6 6 6.71053 6 7.5C6 8.28947 5.36842 9 4.57895 9H1.5C0.631579 9 0 8.28947 0 7.5C0 6.71053 0.631579 6 1.42105 6H4.5Z" fill="#2CB2FF"/>
<path d="M56 57.5C56 56.6316 55.2895 56 54.5 56H51.421C50.6316 56.0789 50 56.7105 50 57.5C50 58.3684 50.7105 59 51.5 59H54.5789C55.3684 58.9211 56 58.2895 56 57.5Z" fill="#2CB2FF"/>
<path fill-rule="evenodd" clip-rule="evenodd" d="M30.5 16.7546C21.2212 16.7546 13.7546 24.2212 13.7546 33.5C13.7546 42.7788 21.2212 50.2454 30.5 50.2454C39.7788 50.2454 47.2454 42.7788 47.2454 33.5C47.2454 24.2212 39.7788 16.7546 30.5 16.7546ZM11 33.5C11 22.6989 19.6989 14 30.5 14C41.3011 14 50 22.6989 50 33.5C50 44.3011 41.3011 53 30.5 53C19.6989 53 11 44.3011 11 33.5Z" fill="#2CB2FF"/>
</g>
<defs>
<clipPath id="clip0_117_146">
<rect width="65" height="65" fill="white"/>
</clipPath>
</defs>
</svg>
