<svg width="65" height="60" viewBox="0 0 65 60" fill="none" xmlns="http://www.w3.org/2000/svg">
<path d="M63.7135 51.1765C58.974 49.7511 54.4375 41.1312 50.9167 26.9457C48.1406 15.6787 46.9896 4.75113 46.9896 4.61539C46.9219 3.80091 46.1771 3.19005 45.3646 3.19005H39.4062V1.62896C39.4062 0.746607 38.6615 0 37.7812 0C36.901 0 36.1562 0.746607 36.1562 1.62896V3.19005H25.3229V1.62896C25.3229 0.746607 24.5781 0 23.6979 0C22.8177 0 22.0729 0.746607 22.0729 1.62896V3.19005H11.2396V1.62896C11.2396 0.746607 10.4948 0 9.61458 0C8.73438 0 7.98958 0.678733 7.98958 1.56109V3.12217H1.48958C1.15104 3.12217 0.8125 3.25792 0.541667 3.39366C0.541667 3.46154 0.473959 3.52941 0.473959 3.52941C0.40625 3.52941 0.40625 3.59729 0.338542 3.59729C0.270833 3.66516 0.270833 3.66516 0.270833 3.73303C0.270833 3.8009 0.203125 3.8009 0.203125 3.86878C0.203125 3.93665 0.135417 3.93665 0.135417 4.00453C0.135417 4.0724 0.0677086 4.0724 0.0677086 4.14027C0.0677086 4.20814 0.0677083 4.20815 0 4.27602V4.34389V4.41176C0 4.47964 0 4.47964 0 4.54751C0 4.54751 0 4.54751 0 4.61539C0 4.68326 0 4.75113 0 4.75113V58.371C0 59.2534 0.744792 60 1.625 60H45.5677C46.4479 60 47.1927 59.2534 47.1927 58.371V54.2986H63.375C64.1875 54.2986 64.8646 53.6878 65 52.8733C64.9323 52.1946 64.4583 51.448 63.7135 51.1765ZM3.11458 56.81V24.4344C3.31771 25.5204 3.58854 26.6063 3.85937 27.6244C7.71875 43.5068 12.7292 52.3982 18.7552 54.2986H18.8229C18.8906 54.2986 18.9583 54.3665 19.026 54.3665C19.026 54.3665 19.026 54.3665 19.0938 54.3665C19.1615 54.3665 19.2292 54.3665 19.2969 54.3665H43.7396V56.81H3.11458ZM45.4323 51.1086H19.5677C14.8958 49.5475 10.4271 40.9276 6.97396 26.9457C4.875 18.3937 3.72396 9.97738 3.25 6.38009H7.98958V7.94118C7.98958 8.82353 8.73438 9.57014 9.61458 9.57014C10.4948 9.57014 11.2396 8.82353 11.2396 7.94118V6.38009H22.1406V7.94118C22.1406 8.82353 22.8854 9.57014 23.7656 9.57014C24.6458 9.57014 25.3906 8.82353 25.3906 7.94118V6.38009H36.2917V7.94118C36.2917 8.82353 37.0365 9.57014 37.9167 9.57014C38.7969 9.57014 39.5417 8.82353 39.5417 7.94118V6.38009H44.0104C44.4167 9.77376 45.6354 18.5973 47.8021 27.6244C50.5781 39.0271 53.9635 46.9005 57.9583 51.0407H45.4323V51.1086ZM13.3385 19.7511C12.4583 19.7511 11.7135 19.0045 11.7135 18.1222C11.7135 17.2398 12.4583 16.4932 13.3385 16.4932H38.6615C39.5417 16.4932 40.2865 17.2398 40.2865 18.1222C40.2865 19.0045 39.5417 19.7511 38.6615 19.7511H13.3385ZM40.2187 28.2353H14.9635C14.0833 28.2353 13.3385 27.4887 13.3385 26.6063C13.3385 25.724 14.0833 24.9774 14.9635 24.9774H40.2865C41.1667 24.9774 41.9115 25.724 41.9115 26.6063C41.9115 27.4887 41.099 28.2353 40.2187 28.2353ZM44.0104 35.0226C44.0104 35.905 43.2656 36.6516 42.3854 36.6516H17.0625C16.1823 36.6516 15.4375 35.905 15.4375 35.0226C15.4375 34.1403 16.1823 33.3937 17.0625 33.3937H42.3854C43.2656 33.3937 44.0104 34.1403 44.0104 35.0226Z" fill="#2CB2FF"/>
</svg>
