<svg width="65" height="65" viewBox="0 0 65 65" fill="none" xmlns="http://www.w3.org/2000/svg">
<path d="M50.1429 44.6771C51.1746 44.6771 52.1376 45.0904 52.8254 45.7793C53.5132 46.4682 53.9259 47.4327 53.9259 48.4661C53.9259 49.4995 53.5132 50.4639 52.8254 51.1529C52.1376 51.8418 51.1746 52.2551 50.1429 52.2551C49.1111 52.2551 48.1481 51.8418 47.4603 51.1529C46.7725 50.4639 46.3598 49.4995 46.3598 48.4661C46.3598 47.4327 46.7725 46.4682 47.4603 45.7793C48.2169 45.0904 49.1111 44.6771 50.1429 44.6771ZM51.7936 32.3455C52.2751 31.7255 53.1005 31.6566 53.7196 32.1389C54.3386 32.6211 54.4074 33.4478 53.9259 34.0678L39.7566 51.4973C39.2751 52.1173 38.4497 52.1862 37.8307 51.704C37.2116 51.2217 37.1429 50.3951 37.6243 49.775L51.7936 32.3455ZM28.9577 22.1496L39.5503 12.9871L35.0794 9.12917C34.3228 8.44026 33.3598 8.16469 32.4656 8.16469C31.5714 8.16469 30.6085 8.50915 29.9206 9.12917L29.3016 9.6803L29.2328 9.74919L17.4021 19.8073C16.9206 20.2207 16.5767 20.634 16.3704 21.1851C16.164 21.6674 16.0265 22.2185 16.0265 22.8385V53.7707C16.0265 53.9774 16.0265 54.253 16.0952 54.4596C16.2328 55.2174 16.5767 55.9063 17.127 56.4575L17.1958 56.5264C17.9524 57.2842 18.9153 57.6975 20.0159 57.6975H26.5503V27.2476C26.5503 26.2142 26.7566 25.3186 27.1693 24.423C27.582 23.5274 28.2011 22.7696 28.9577 22.1496ZM41.6825 11.1959C42.9206 10.2314 44.3651 9.81808 45.8095 9.81808C47.3915 9.81808 48.9048 10.3692 50.2116 11.4715L62.6614 22.2185C63.418 22.8385 63.9683 23.5963 64.381 24.4919C64.7936 25.3875 65 26.2831 65 27.3165V58.2487C65 60.1087 64.2434 61.831 63.0053 63.0022C61.7672 64.2422 60.1164 65 58.2593 65H33.3598C31.5026 65 29.8519 64.2422 28.6138 63.0022C27.9259 62.3132 27.3757 61.4865 27.0317 60.591H20.0159C18.1587 60.591 16.5079 59.8332 15.2698 58.5931L15.2011 58.4553C14.582 57.7664 14.0317 57.0086 13.7566 56.113H6.74074C4.8836 56.113 3.2328 55.3552 1.99471 54.1152C0.756614 52.8751 0 51.2217 0 49.3617V18.4295C0 17.3961 0.206349 16.5005 0.619047 15.605C1.03175 14.7094 1.58201 13.9516 2.33862 13.3315L14.7884 2.5845C16.0265 1.48224 17.6085 1 19.1217 1C20.7037 1 22.2169 1.55113 23.5238 2.65339L28.3386 6.78687C29.5767 5.82239 31.0212 5.40904 32.4656 5.40904C34.0476 5.40904 35.5608 5.96017 36.8677 7.06243L41.6825 11.1959ZM43.1958 13.4693L42.5767 14.0205L30.746 24.2164C30.2646 24.6297 29.9206 25.0431 29.7143 25.5942C29.5079 26.0764 29.3704 26.6276 29.3704 27.2476V58.1798C29.3704 58.3864 29.3704 58.662 29.4392 58.8687C29.5767 59.6954 29.9894 60.3843 30.5397 60.9354C31.2963 61.6932 32.2593 62.1066 33.3598 62.1066H58.1905C59.291 62.1066 60.254 61.6243 61.0106 60.9354C61.7672 60.1776 62.1799 59.2131 62.1799 58.1109V27.2476C62.1799 26.6276 62.0423 26.0764 61.836 25.5942C61.6296 25.1119 61.2857 24.6297 60.8042 24.2853L48.3545 13.4693C47.5979 12.8493 46.7037 12.5048 45.7407 12.5048C44.8466 12.5048 43.9524 12.8493 43.1958 13.4693ZM13.2751 53.4263V22.8385C13.2751 21.8052 13.4815 20.9096 13.8942 20.014C14.3069 19.1184 14.8571 18.3606 15.6138 17.7406L26.2751 8.57804L21.7355 4.72013C20.9788 4.10011 20.0847 3.75565 19.1217 3.75565C18.2275 3.75565 17.2645 4.10011 16.5767 4.72013L4.12698 15.4672C3.6455 15.8805 3.30159 16.2939 3.09524 16.845C2.88889 17.3272 2.75132 17.8784 2.75132 18.4984V49.4306C2.75132 50.5328 3.2328 51.4973 3.92063 52.2551C4.60847 53.0129 5.64021 53.4263 6.74074 53.4263H13.2751ZM41.3386 31.5877C42.3704 31.5877 43.3333 32.0011 44.0212 32.69C44.709 33.3789 45.1217 34.3434 45.1217 35.3768C45.1217 36.4101 44.709 37.3746 44.0212 38.0635C43.3333 38.7524 42.3704 39.1658 41.3386 39.1658C40.3069 39.1658 39.3439 38.7524 38.6561 38.0635C37.9683 37.3746 37.5556 36.4101 37.5556 35.3768C37.5556 34.3434 37.9683 33.3789 38.6561 32.69C39.4127 32.0011 40.3069 31.5877 41.3386 31.5877ZM42.0952 34.6189C41.8889 34.4123 41.6825 34.3434 41.3386 34.3434C41.0635 34.3434 40.7884 34.4812 40.582 34.6189C40.3757 34.8256 40.3069 35.0323 40.3069 35.3768C40.3069 35.6523 40.4444 35.9279 40.582 36.1346C40.7884 36.3412 40.9947 36.4101 41.3386 36.4101C41.6825 36.4101 41.8889 36.2723 42.0952 36.1346C42.3016 35.9279 42.3704 35.7212 42.3704 35.3768C42.3704 35.1012 42.3016 34.8256 42.0952 34.6189ZM50.8995 47.7772C50.6931 47.5705 50.4868 47.5016 50.1429 47.5016C49.8677 47.5016 49.5926 47.6394 49.3862 47.7772C49.1799 47.9839 49.1111 48.1905 49.1111 48.535C49.1111 48.8106 49.2487 49.0861 49.3862 49.2928C49.5926 49.4995 49.7989 49.5684 50.1429 49.5684C50.4868 49.5684 50.6931 49.4306 50.8995 49.2928C51.1058 49.0861 51.1746 48.8794 51.1746 48.535C51.1746 48.1905 51.1058 47.915 50.8995 47.7772Z" fill="#2CB2FF"/>
</svg>
